<mxfile host="app.diagrams.net" modified="2023-09-05T09:07:59.113Z" agent="Mozilla/5.0 (Macintosh; Intel Mac OS X 10_15_7) AppleWebKit/605.1.15 (KHTML, like Gecko) Version/16.5.1 Safari/605.1.15" version="21.7.2" etag="17flKLvT1ATmftvObsPj" type="github">
  <diagram name="第 1 页" id="Sn6c6othGLspijfK3GIo">
    <mxGraphModel>
      <root>
        <mxCell id="0" />
        <mxCell id="1" parent="0" />
      </root>
    </mxGraphModel>
  </diagram>
</mxfile>
